<?xml version="1.0" standalone="no"?>
<!DOCTYPE svg PUBLIC "-//W3C//DTD SVG 20010904//EN"
 "http://www.w3.org/TR/2001/REC-SVG-20010904/DTD/svg10.dtd">
<svg version="1.0" xmlns="http://www.w3.org/2000/svg"
 width="400.000000pt" height="400.000000pt" viewBox="0 0 400.000000 400.000000"
 preserveAspectRatio="xMidYMid meet">
<metadata>
Created by potrace 1.14, written by Peter Selinger 2001-2017
</metadata>
<g transform="translate(0.000000,400.000000) scale(0.100000,-0.100000)"
fill="#000000" stroke="none">
<path d="M2825 3653 c-99 -20 -186 -65 -258 -133 -105 -99 -160 -211 -172
-355 -8 -91 -29 -147 -71 -189 -56 -56 -73 -58 -389 -61 -236 -1 -300 -5 -345
-18 -226 -68 -376 -256 -395 -492 -3 -43 -12 -93 -20 -112 -21 -49 -78 -100
-127 -114 -34 -9 -294 -16 -412 -10 -16 1 -14 6 12 32 43 44 65 93 59 137 -16
143 -174 202 -282 105 -17 -15 -50 -45 -75 -67 -25 -23 -92 -84 -149 -136 -57
-52 -112 -101 -122 -108 -30 -21 -59 -87 -59 -132 0 -68 16 -90 161 -221 117
-105 198 -179 228 -208 65 -60 128 -75 196 -47 63 27 105 90 105 159 0 31 -29
89 -60 119 -17 15 -30 29 -30 31 0 1 92 2 204 1 218 0 245 -5 300 -54 41 -37
63 -87 69 -160 10 -112 18 -143 58 -227 67 -140 191 -244 344 -289 50 -14 107
-17 351 -19 l291 -1 46 -27 c75 -44 103 -98 112 -213 14 -199 126 -366 300
-450 106 -51 171 -61 410 -59 200 1 212 2 251 24 108 61 114 211 11 279 l-41
27 -216 2 c-175 1 -223 4 -255 17 -77 33 -124 96 -129 178 -6 76 -15 138 -28
178 -14 46 -64 137 -99 179 l-27 34 20 21 c40 42 100 159 114 221 5 24 14 84
19 139 7 69 21 100 66 144 49 48 90 55 324 57 204 1 211 2 247 26 46 30 81 90
81 139 0 57 -40 119 -92 146 -42 21 -54 22 -280 19 -209 -2 -244 -5 -302 -24
-205 -66 -356 -255 -374 -466 -8 -102 -13 -123 -41 -163 -28 -42 -77 -76 -129
-88 -22 -5 -150 -9 -285 -8 -266 1 -288 5 -348 59 -39 35 -59 85 -66 166 -12
129 -43 215 -113 313 l-35 49 21 26 c72 89 118 208 125 321 8 111 42 172 121
213 37 19 58 21 315 22 304 3 331 5 418 39 203 80 329 259 346 492 5 72 23
119 62 157 54 54 80 59 319 61 251 3 270 9 314 87 43 76 18 174 -56 220 -37
23 -46 24 -253 25 -149 1 -236 -3 -285 -13z"/>
<path d="M3755 3656 c-137 -63 -139 -247 -5 -305 179 -77 319 166 164 284 -41
32 -115 42 -159 21z"/>
<path d="M3738 2147 c-75 -37 -110 -145 -72 -220 22 -42 36 -54 85 -76 76 -34
163 -7 205 65 29 49 35 86 21 129 -17 50 -48 87 -93 106 -51 23 -94 21 -146
-4z"/>
<path d="M3765 659 c-90 -26 -143 -146 -101 -227 29 -55 101 -102 158 -102 10
0 38 9 63 21 85 40 120 138 79 224 -31 67 -125 106 -199 84z"/>
</g>
</svg>
